<svg width="16" height="16" viewBox="0 0 16 16" fill="none" xmlns="http://www.w3.org/2000/svg">
<path d="M8.78 12.5988L14.8487 13.1763C15.42 13.2313 15.5662 12.9125 15.5662 12.6425L15.56 12.315L8.09625 11.2625C8.09625 11.6363 8.4 12.5988 8.78 12.5988Z" fill="#C62828"/>
<path d="M9.00125 12.3138L9.95625 12.3975L15.07 12.8912C15.345 12.8912 15.5662 12.6725 15.5662 12.4025L15.295 4.12C15.295 3.85 15.0725 3.63125 14.7987 3.63125L9.00125 3.08375C8.62125 3.08375 8.3125 3.3875 8.3125 3.76125V11.6362C8.3125 12.01 8.62 12.3138 9.00125 12.3138Z" fill="#F44336"/>
<path d="M7.22 12.5988L1.15125 13.1763C0.58 13.2313 0.43375 12.9125 0.43375 12.6425L0.44 12.315L7.90375 11.2612C7.90375 11.6362 7.6 12.5988 7.22 12.5988Z" fill="#C62828"/>
<path d="M6.99875 12.3137L6.05125 12.3975L0.93 12.8925C0.655 12.8925 0.43375 12.6737 0.43375 12.4037L0.705 4.12125C0.705 3.85125 0.9275 3.6325 1.20125 3.6325L6.99875 3.085C7.37875 3.085 7.6875 3.38875 7.6875 3.7625V11.6375C7.6875 12.01 7.38 12.3137 6.99875 12.3137Z" fill="#F44336"/>
<path d="M9.84375 10.46H6.15875L6.04625 12.4012L7.19625 12.5087C7.19625 12.5087 7.4425 13.1237 8 13.1237C8.5575 13.1237 8.80375 12.5087 8.80375 12.5087L9.95375 12.4012L9.84375 10.46Z" fill="#424242"/>
<path d="M9.9425 12.5538L8.87125 12.4613M6.0575 12.5538L7.12875 12.4613" stroke="#616161" stroke-width="0.3125" stroke-miterlimit="10"/>
<path d="M14.9562 4.1025L14.4562 3.415L8 10.7525L1.54375 3.415L1.04375 4.1025L0.973749 12.2713C0.973749 12.2713 2.30125 12.4375 4.075 12.2575C5.62 12.1013 6.3475 11.7013 6.86375 11.805C7.48375 11.93 7.59625 12.3113 7.61625 12.3763C7.6725 12.5563 7.78375 12.6963 8 12.6963C8.21625 12.6963 8.3125 12.6213 8.37875 12.3988C8.39875 12.3338 8.51625 11.9313 9.13625 11.8063C9.6525 11.7025 10.38 12.1025 11.925 12.2588C13.6987 12.4388 15.0262 12.2725 15.0262 12.2725L14.9562 4.1025Z" fill="#94C6D6"/>
<path d="M14.2875 11.4838L14.3075 8.185H14.9912L15.0262 12.2713C15.0262 12.2713 14.4825 12.06 14.2875 11.4838Z" fill="url(#paint0_linear_2_37)"/>
<path d="M14.3188 9.56125L14.2875 11.485C14.2875 11.485 12.7925 11.4075 10.4113 10.995C8.85375 10.725 8 11.59 8 11.59L7.98625 9.56125H14.3188Z" fill="url(#paint1_linear_2_37)"/>
<path d="M1.68125 9.56125L1.7125 11.485C1.7125 11.485 3.2075 11.4075 5.58875 10.995C7.14625 10.725 8 11.59 8 11.59L7.98625 9.56125H1.68125Z" fill="url(#paint2_linear_2_37)"/>
<path d="M1.7125 11.4838L1.6925 8.185H1.0075L0.973749 12.2713C0.973749 12.2713 1.51625 12.06 1.7125 11.4838Z" fill="url(#paint3_linear_2_37)"/>
<path d="M14.4562 3.415C14.4562 3.415 11.1387 2.79125 9.6825 2.71C8.3125 2.63375 8.03125 3.33125 8.00375 3.415H7.99875C7.97 3.33125 7.68875 2.635 6.31875 2.71C4.8625 2.79125 1.545 3.415 1.545 3.415L1.3975 11.465C1.3975 11.465 5.3475 10.6375 6.30375 10.745C7.26 10.8525 8 11.59 8 11.59C8 11.59 8.74125 10.8525 9.6975 10.745C10.6537 10.6375 14.6037 11.465 14.6037 11.465L14.4562 3.415Z" fill="#F5F5F5"/>
<path opacity="0.26" d="M6.7025 2.71125L6.0275 10.7362C6.13375 10.7338 6.2275 10.7362 6.3025 10.745C7.2575 10.8512 8 11.59 8 11.59L7.97875 3.415C7.97875 3.415 7.81625 2.775 6.7025 2.71125Z" fill="#94C6D6"/>
<path opacity="0.5" d="M3.16375 3.7725C2.82625 3.83125 2.55 3.88125 2.3925 3.90875C2.3925 3.98625 2.3925 4.07125 2.39125 4.1625C2.53 4.1375 2.8125 4.08625 3.16375 4.025V3.7725ZM6.20625 3.37V3.61875C6.8725 3.6175 7.24125 3.785 7.3625 3.8525C7.3625 3.74875 7.36375 3.65625 7.36375 3.575C7.1575 3.4825 6.78 3.36875 6.20625 3.37ZM5.66375 3.40125C5.1225 3.45625 4.36875 3.57125 3.70625 3.68125V3.935C4.36375 3.82625 5.11875 3.71 5.66375 3.6525V3.40125ZM4.3325 4.48C3.525 4.605 2.715 4.75 2.39 4.80875V5.0625C2.6725 5.01125 3.50125 4.86125 4.3325 4.7325V4.48ZM5.83625 4.285C5.5725 4.30625 5.23625 4.34875 4.875 4.39875V4.65125C5.24375 4.59875 5.58875 4.55625 5.85625 4.53375C6.75375 4.46 7.2275 4.68 7.36 4.755V4.47625C7.115 4.3675 6.62375 4.22 5.83625 4.285ZM3.2975 5.54875C2.9025 5.61625 2.5725 5.675 2.39 5.70875V5.9625C2.55375 5.9325 2.88875 5.8725 3.2975 5.8025V5.54875ZM7.36 5.38C7.11625 5.27 6.62375 5.12 5.82875 5.18625C5.32 5.2275 4.54125 5.34375 3.84 5.45875V5.7125C4.5475 5.59625 5.3375 5.47875 5.85 5.43625C6.7625 5.36125 7.2375 5.59 7.36 5.66125V5.38ZM7.36125 6.28375C7.12 6.17375 6.625 6.02 5.82375 6.08625C5.7425 6.0925 5.655 6.10125 5.5625 6.11125V6.3625C5.66375 6.35125 5.7575 6.3425 5.845 6.335C6.775 6.25875 7.25 6.4975 7.3625 6.565C7.36125 6.47125 7.36125 6.3775 7.36125 6.28375ZM5.01875 6.17875C4.04125 6.3125 2.82375 6.52875 2.39125 6.6075V6.86125C2.7725 6.79125 4.01875 6.5675 5.01875 6.43V6.17875ZM3.53125 7.30875C3.04 7.39125 2.615 7.4675 2.39125 7.5075V7.76125C2.59375 7.72375 3.025 7.64625 3.53125 7.56125V7.30875ZM7.3625 7.18875C7.12375 7.07875 6.62625 6.92125 5.8175 6.9875C5.3675 7.025 4.7075 7.11875 4.075 7.22V7.4725C4.71375 7.37 5.385 7.27375 5.8375 7.23625C6.79125 7.1575 7.2675 7.4125 7.3625 7.47V7.18875ZM7.365 8.9975C7.1375 8.88875 6.645 8.725 5.8325 8.78625V9.0375C6.86875 8.95375 7.33875 9.26375 7.365 9.2825V8.9975ZM3.2975 9.1475C2.9125 9.21375 2.585 9.27125 2.39375 9.30625V9.56C2.57 9.5275 2.9 9.46875 3.2975 9.4V9.1475ZM3.84 9.0575V9.31125C4.325 9.2325 4.84625 9.1525 5.29 9.09625V8.84375C4.84875 8.89875 4.3275 8.9775 3.84 9.0575ZM4.70875 9.8225C3.81375 9.9525 2.8075 10.1312 2.395 10.2062V10.46C2.76875 10.3912 3.79375 10.2087 4.70875 10.075V9.8225ZM7.36625 9.9025C7.14 9.7925 6.63625 9.62125 5.79625 9.69C5.6375 9.7025 5.4525 9.72375 5.25125 9.74875V10C5.46 9.97375 5.6525 9.9525 5.81625 9.93875C6.88625 9.85 7.35625 10.1825 7.36125 10.185L7.3675 10.1775C7.3675 10.0912 7.3675 10 7.36625 9.9025ZM4.5225 8.05C3.67 8.1775 2.76625 8.33875 2.3925 8.4075V8.66125C2.7275 8.6 3.64875 8.435 4.5225 8.3025V8.05ZM7.36375 8.0925C7.12875 7.9825 6.63 7.82 5.81 7.8875C5.6 7.905 5.34375 7.935 5.06625 7.9725V8.225C5.3525 8.18625 5.61625 8.155 5.83125 8.1375C6.81625 8.05625 7.2925 8.33 7.365 8.37625C7.36375 8.28375 7.36375 8.18875 7.36375 8.0925ZM11.0512 3.71375C12.0862 3.85125 13.4387 4.09625 13.8062 4.1625C13.8062 4.07 13.8062 3.98625 13.805 3.90875C13.375 3.83 12.0587 3.595 11.05 3.46125V3.71375H11.0512ZM10.5075 3.39875C10.4537 3.39375 10.4025 3.38875 10.3537 3.385C9.57 3.32 9.08 3.46625 8.83375 3.575C8.83375 3.65625 8.835 3.75 8.835 3.8525C8.975 3.775 9.44875 3.56125 10.3337 3.63375C10.3887 3.63875 10.4475 3.64375 10.5075 3.65V3.39875ZM12.795 4.885C13.1329 4.94252 13.4704 5.0021 13.8075 5.06375V4.81C13.6112 4.77375 13.2387 4.7075 12.795 4.6325V4.885ZM12.2525 4.54125C11.5762 4.4325 10.8462 4.325 10.3612 4.285C9.57375 4.22 9.0825 4.3675 8.83625 4.47625V4.755C8.96875 4.68 9.4425 4.46 10.34 4.53375C10.8287 4.57375 11.57 4.68375 12.2512 4.79375V4.54125H12.2525ZM12.1475 5.42375V5.67625C12.8737 5.7925 13.55 5.915 13.8075 5.9625V5.70875C13.5162 5.65625 12.8525 5.5375 12.1475 5.42375ZM11.05 6.1625C10.7987 6.13 10.5662 6.1025 10.3737 6.0875C9.5725 6.02125 9.0775 6.175 8.83625 6.285V6.56625C8.94875 6.5 9.425 6.26 10.3537 6.33625C10.5512 6.3525 10.7912 6.38 11.05 6.415V6.1625ZM11.5937 6.23875V6.49125C12.5 6.62625 13.4762 6.8025 13.8062 6.8625V6.60875C13.4337 6.54 12.4775 6.37 11.5937 6.23875ZM11.7037 7.155C11.21 7.08 10.7312 7.01625 10.3812 6.9875C9.57125 6.92125 9.07375 7.07875 8.83625 7.18875V7.47125C8.93125 7.4125 9.4075 7.15875 10.3612 7.2375C10.715 7.26625 11.2037 7.3325 11.705 7.40875V7.155H11.7037ZM12.2462 7.24V7.49375C12.9262 7.60375 13.5487 7.71625 13.805 7.7625V7.50875C13.52 7.45625 12.9075 7.34625 12.2462 7.24ZM13.13 8.2875V8.54125C13.425 8.5925 13.6662 8.63625 13.8037 8.66125V8.4075C13.6537 8.38 13.4162 8.3375 13.13 8.2875ZM11.1612 8.87625C10.875 8.8375 10.61 8.80625 10.395 8.78875C9.565 8.72 9.06375 8.8875 8.83375 8.9975V9.2825C8.86 9.26375 9.3325 8.95125 10.3762 9.0375C10.5962 9.055 10.8687 9.0875 11.1637 9.1275V8.87625H11.1612ZM11.7037 8.95375V9.20625C12.5637 9.33625 13.4662 9.49875 13.8037 9.56V9.30625C13.4287 9.23875 12.5437 9.08125 11.7037 8.95375ZM12.1475 9.9225C11.5137 9.82125 10.8512 9.72625 10.4012 9.68875C9.56 9.62 9.0575 9.7925 8.83125 9.90125V10.1762L8.8375 10.1837C8.84125 10.1812 9.31125 9.84875 10.3825 9.9375C10.8362 9.975 11.51 10.0725 12.15 10.175V9.9225H12.1475ZM12.6912 10.0125V10.2662C13.1775 10.3475 13.5925 10.4225 13.8025 10.4612V10.2075C13.5737 10.165 13.1637 10.0912 12.6912 10.0125ZM10.3662 7.88625C9.55875 7.8225 9.06625 7.98375 8.83375 8.0925V8.37625C8.90625 8.33 9.38125 8.05625 10.3662 8.1375V7.88625ZM10.91 7.94375V8.195C11.425 8.26 12.0437 8.3575 12.5875 8.4475V8.19375C12.04 8.10375 11.4212 8.0075 10.91 7.94375ZM9.965 5.17125C9.405 5.175 9.03625 5.29 8.8375 5.38V5.66C8.9425 5.6 9.30125 5.42625 9.965 5.42V5.17125ZM10.5075 5.19875V5.45C10.8187 5.48125 11.205 5.53375 11.6037 5.5925V5.34C11.2037 5.28 10.8187 5.22875 10.5075 5.19875Z" fill="#757575"/>
<path d="M8.895 12.3062C8.755 12.2937 8.62625 12.38 8.58125 12.5138C8.51375 12.7175 8.35625 12.9838 8 12.9838C7.64 12.9838 7.48125 12.7163 7.4125 12.5125C7.3911 12.4486 7.34896 12.3938 7.29279 12.3566C7.23661 12.3195 7.16963 12.3022 7.1025 12.3075L7.05375 12.3113L7.055 12.3513C7.055 12.6015 7.15443 12.8416 7.33142 13.0186C7.5084 13.1956 7.74845 13.295 7.99875 13.295C8.24905 13.295 8.48909 13.1956 8.66608 13.0186C8.84307 12.8416 8.9425 12.6015 8.9425 12.3513C8.9425 12.3388 8.94125 12.31 8.94125 12.31L8.895 12.3062Z" fill="#616161"/>
<defs>
<linearGradient id="paint0_linear_2_37" x1="14.6554" y1="11.0251" x2="14.6862" y2="8.86225" gradientUnits="userSpaceOnUse">
<stop offset="0.267" stop-color="#82AEC0"/>
<stop offset="1" stop-color="#82AEC0" stop-opacity="0"/>
</linearGradient>
<linearGradient id="paint1_linear_2_37" x1="8.73962" y1="10.5751" x2="14.091" y2="10.5751" gradientUnits="userSpaceOnUse">
<stop stop-color="#2F7889"/>
<stop offset="1" stop-color="#82AEC0"/>
</linearGradient>
<linearGradient id="paint2_linear_2_37" x1="7.24737" y1="10.5751" x2="1.90787" y2="10.5751" gradientUnits="userSpaceOnUse">
<stop stop-color="#2F7889"/>
<stop offset="1" stop-color="#82AEC0"/>
</linearGradient>
<linearGradient id="paint3_linear_2_37" x1="1.34412" y1="11.0251" x2="1.31312" y2="8.86225" gradientUnits="userSpaceOnUse">
<stop offset="0.267" stop-color="#82AEC0"/>
<stop offset="1" stop-color="#82AEC0" stop-opacity="0"/>
</linearGradient>
</defs>
</svg>
