<svg width="16" height="16" viewBox="0 0 16 16" fill="none" xmlns="http://www.w3.org/2000/svg">
<g clip-path="url(#clip0_2_41)">
<path d="M9.39137 15.3448L6.61406 12.6366L12.5786 6.54569L15.4541 9.36388L9.39137 15.3448Z" fill="#8AB4F8"/>
<path d="M9.40312 3.37112L6.636 0.545687L0.585 6.53931C-0.195 7.31931 -0.195 8.58387 0.585 9.36475L6.545 15.3639L9.36312 12.7275L4.82225 7.95206L9.40312 3.37112Z" fill="#4285F4"/>
<path d="M15.4141 6.58563L9.41406 0.585626C8.63319 -0.195249 7.36681 -0.195249 6.58594 0.585626C5.80506 1.3665 5.805 2.63294 6.58594 3.41388L12.5859 9.41388C13.3668 10.1948 14.6332 10.1948 15.4141 9.41388C16.1949 8.633 16.195 7.3665 15.4141 6.58563Z" fill="#8AB4F8"/>
<path d="M7.95406 16.0003C9.03353 16.0003 9.90862 15.1252 9.90862 14.0457C9.90862 12.9662 9.03353 12.0911 7.95406 12.0911C6.87458 12.0911 5.9995 12.9662 5.9995 14.0457C5.9995 15.1252 6.87458 16.0003 7.95406 16.0003Z" fill="#246FDB"/>
</g>
<defs>
<clipPath id="clip0_2_41">
<rect width="16" height="16" fill="white"/>
</clipPath>
</defs>
</svg>
