<svg width="16" height="16" viewBox="0 0 16 16" fill="none" xmlns="http://www.w3.org/2000/svg">
<path d="M10.99 7.714C10.7997 7.66289 10.6011 7.6498 10.4057 7.67547C10.2103 7.70114 10.0218 7.76507 9.85113 7.8636C9.68043 7.96214 9.53083 8.09335 9.41087 8.24973C9.29091 8.40611 9.20295 8.5846 9.15201 8.775L8.76401 10.224C8.55807 10.9926 8.66588 11.8115 9.06374 12.5006C9.4616 13.1897 10.1169 13.6926 10.8855 13.8985C11.6541 14.1044 12.473 13.9966 13.1621 13.5988C13.8512 13.2009 14.3541 12.5456 14.56 11.777L14.948 10.327C15.0507 9.94298 14.9967 9.53391 14.7979 9.18966C14.5992 8.8454 14.2719 8.59412 13.888 8.491L10.99 7.714Z" fill="url(#paint0_radial_2_45)"/>
<path d="M5.01 7.714C5.20028 7.66304 5.39874 7.65006 5.59404 7.6758C5.78935 7.70155 5.97766 7.7655 6.14825 7.86403C6.31883 7.96255 6.46834 8.09371 6.58823 8.25002C6.70812 8.40632 6.79605 8.58471 6.847 8.775L7.235 10.224C7.34285 10.6064 7.37368 11.0063 7.32571 11.4007C7.27774 11.795 7.15192 12.1759 6.95555 12.5213C6.75919 12.8666 6.49618 13.1695 6.18181 13.4124C5.86744 13.6553 5.50796 13.8333 5.12423 13.9362C4.7405 14.039 4.34016 14.0646 3.94646 14.0115C3.55276 13.9583 3.17353 13.8276 2.83079 13.6267C2.48804 13.4258 2.18861 13.1589 1.94986 12.8413C1.71111 12.5238 1.5378 12.162 1.44 11.777L1.051 10.327C0.948381 9.94284 1.0025 9.53365 1.20145 9.18938C1.4004 8.8451 1.72791 8.5939 2.112 8.491L5.01 7.714Z" fill="url(#paint1_radial_2_45)"/>
<path d="M6.5 7C6.10218 7 5.72064 7.15804 5.43934 7.43934C5.15804 7.72064 5 8.10218 5 8.5V11C5 11.7956 5.31607 12.5587 5.87868 13.1213C6.44129 13.6839 7.20435 14 8 14C8.79565 14 9.55871 13.6839 10.1213 13.1213C10.6839 12.5587 11 11.7956 11 11V8.5C11 8.10218 10.842 7.72064 10.5607 7.43934C10.2794 7.15804 9.89782 7 9.5 7H6.5Z" fill="url(#paint2_radial_2_45)"/>
<path d="M8 1C7.33696 1 6.70107 1.26339 6.23223 1.73223C5.76339 2.20107 5.5 2.83696 5.5 3.5C5.5 4.16304 5.76339 4.79893 6.23223 5.26777C6.70107 5.73661 7.33696 6 8 6C8.66304 6 9.29893 5.73661 9.76777 5.26777C10.2366 4.79893 10.5 4.16304 10.5 3.5C10.5 2.83696 10.2366 2.20107 9.76777 1.73223C9.29893 1.26339 8.66304 1 8 1Z" fill="url(#paint3_radial_2_45)"/>
<path d="M3 3C2.46957 3 1.96086 3.21071 1.58579 3.58579C1.21071 3.96086 1 4.46957 1 5C1 5.53043 1.21071 6.03914 1.58579 6.41421C1.96086 6.78929 2.46957 7 3 7C3.53043 7 4.03914 6.78929 4.41421 6.41421C4.78929 6.03914 5 5.53043 5 5C5 4.46957 4.78929 3.96086 4.41421 3.58579C4.03914 3.21071 3.53043 3 3 3Z" fill="url(#paint4_radial_2_45)"/>
<path d="M13 3C12.4696 3 11.9609 3.21071 11.5858 3.58579C11.2107 3.96086 11 4.46957 11 5C11 5.53043 11.2107 6.03914 11.5858 6.41421C11.9609 6.78929 12.4696 7 13 7C13.5304 7 14.0391 6.78929 14.4142 6.41421C14.7893 6.03914 15 5.53043 15 5C15 4.46957 14.7893 3.96086 14.4142 3.58579C14.0391 3.21071 13.5304 3 13 3Z" fill="url(#paint5_radial_2_45)"/>
<defs>
<radialGradient id="paint0_radial_2_45" cx="0" cy="0" r="1" gradientUnits="userSpaceOnUse" gradientTransform="translate(10.8123 9.43953) rotate(78.837) scale(4.64914)">
<stop stop-color="#0078D4"/>
<stop offset="1" stop-color="#004695"/>
</radialGradient>
<radialGradient id="paint1_radial_2_45" cx="0" cy="0" r="1" gradientUnits="userSpaceOnUse" gradientTransform="translate(2.553 7.96) rotate(61.0557) scale(6.90379 4.96937)">
<stop stop-color="#008CE2"/>
<stop offset="1" stop-color="#0068C6"/>
</radialGradient>
<radialGradient id="paint2_radial_2_45" cx="0" cy="0" r="1" gradientUnits="userSpaceOnUse" gradientTransform="translate(7.42168 9.45792) rotate(63.608) scale(4.22417 3.87907)">
<stop offset="0.339" stop-color="#3DCBFF"/>
<stop offset="1" stop-color="#14B1FF"/>
</radialGradient>
<radialGradient id="paint3_radial_2_45" cx="0" cy="0" r="1" gradientUnits="userSpaceOnUse" gradientTransform="translate(7.51868 2.75514) rotate(59.931) scale(3.12306)">
<stop offset="0.339" stop-color="#3DCBFF"/>
<stop offset="1" stop-color="#14B1FF"/>
</radialGradient>
<radialGradient id="paint4_radial_2_45" cx="0" cy="0" r="1" gradientUnits="userSpaceOnUse" gradientTransform="translate(2.15768 4.21275) rotate(47.573) scale(3.27979)">
<stop stop-color="#008CE2"/>
<stop offset="1" stop-color="#0068C6"/>
</radialGradient>
<radialGradient id="paint5_radial_2_45" cx="0" cy="0" r="1" gradientUnits="userSpaceOnUse" gradientTransform="translate(12.3579 4.12116) rotate(78.837) scale(2.93403)">
<stop stop-color="#0078D4"/>
<stop offset="1" stop-color="#004695"/>
</radialGradient>
</defs>
</svg>
