<svg width="16" height="16" viewBox="0 0 16 16" fill="none" xmlns="http://www.w3.org/2000/svg">
<path d="M8.00001 2C8.16992 2.00019 8.33336 2.06525 8.45692 2.1819C8.58048 2.29855 8.65483 2.45797 8.66479 2.6276C8.67474 2.79722 8.61956 2.96425 8.5105 3.09455C8.40144 3.22486 8.24674 3.3086 8.078 3.32867L8.00001 3.33333H4.66667C4.50338 3.33335 4.34578 3.3933 4.22376 3.50181C4.10173 3.61032 4.02378 3.75983 4.00467 3.922L4.00001 4V12C4.00003 12.1633 4.05998 12.3209 4.16848 12.4429C4.27699 12.5649 4.4265 12.6429 4.58867 12.662L4.66667 12.6667H7.66667C7.83659 12.6669 8.00003 12.7319 8.12358 12.8486C8.24714 12.9652 8.3215 13.1246 8.33145 13.2943C8.34141 13.4639 8.28622 13.6309 8.17716 13.7612C8.0681 13.8915 7.9134 13.9753 7.74467 13.9953L7.66667 14H4.66667C4.15653 14 3.66566 13.8051 3.2945 13.4551C2.92333 13.1052 2.69993 12.6266 2.67001 12.1173L2.66667 12V4C2.66664 3.48986 2.86156 2.99899 3.21153 2.62783C3.5615 2.25666 4.04008 2.03326 4.54934 2.00333L4.66667 2H8.00001ZM11.8047 5.64267L13.69 7.52867C13.815 7.65369 13.8852 7.82322 13.8852 8C13.8852 8.17678 13.815 8.34631 13.69 8.47133L11.8047 10.3573C11.6796 10.4823 11.51 10.5525 11.3331 10.5525C11.1563 10.5524 10.9867 10.4821 10.8617 10.357C10.7367 10.2319 10.6665 10.0623 10.6665 9.88543C10.6666 9.70858 10.7369 9.53901 10.862 9.414L11.6093 8.66667H8.00001C7.82319 8.66667 7.65363 8.59643 7.5286 8.4714C7.40358 8.34638 7.33334 8.17681 7.33334 8C7.33334 7.82319 7.40358 7.65362 7.5286 7.5286C7.65363 7.40357 7.82319 7.33333 8.00001 7.33333H11.6093L10.862 6.586C10.7369 6.46099 10.6666 6.29142 10.6665 6.11457C10.6665 5.93772 10.7367 5.76809 10.8617 5.643C10.9867 5.51791 11.1563 5.44759 11.3331 5.44753C11.51 5.44747 11.6796 5.51766 11.8047 5.64267Z" fill="#010023"/>
</svg>
