<svg width="16" height="16" viewBox="0 0 16 16" fill="none" xmlns="http://www.w3.org/2000/svg">
<path d="M1.33334 3.51334L2.18667 2.66667L13.3333 13.8133L12.4867 14.6667L10.4333 12.6133C9.66667 12.8667 8.85334 13 8.00001 13C4.66667 13 1.82001 10.9267 0.666672 8.00001C1.12667 6.82667 1.86001 5.79334 2.79334 4.97334L1.33334 3.51334ZM8.00001 6.00001C8.53044 6.00001 9.03915 6.21072 9.41422 6.58579C9.78929 6.96086 10 7.46957 10 8.00001C10.0003 8.22705 9.96202 8.45249 9.88667 8.66667L7.33334 6.11334C7.54752 6.03799 7.77296 5.99967 8.00001 6.00001ZM8.00001 3.00001C11.3333 3.00001 14.18 5.07334 15.3333 8.00001C14.7889 9.38196 13.8644 10.5816 12.6667 11.46L11.72 10.5067C12.642 9.86897 13.3855 9.00608 13.88 8.00001C13.3411 6.89992 12.5044 5.97309 11.4649 5.32491C10.4255 4.67672 9.225 4.33318 8.00001 4.33334C7.27334 4.33334 6.56001 4.45334 5.89334 4.66667L4.86667 3.64667C5.82667 3.23334 6.88667 3.00001 8.00001 3.00001ZM2.12001 8.00001C2.6589 9.1001 3.49564 10.0269 4.5351 10.6751C5.57455 11.3233 6.77501 11.6668 8.00001 11.6667C8.46001 11.6667 8.91334 11.62 9.33334 11.5267L7.81334 10C7.34945 9.95028 6.91655 9.74326 6.58665 9.41336C6.25675 9.08346 6.04973 8.65056 6.00001 8.18667L3.73334 5.91334C3.07334 6.48001 2.52001 7.18667 2.12001 8.00001Z" fill="#010023"/>
</svg>
