<svg width="16" height="16" viewBox="0 0 16 16" fill="none" xmlns="http://www.w3.org/2000/svg">
<path d="M7.99999 6C8.53042 6 9.03913 6.21071 9.4142 6.58579C9.78928 6.96086 9.99999 7.46957 9.99999 8C9.99999 8.53043 9.78928 9.03914 9.4142 9.41421C9.03913 9.78929 8.53042 10 7.99999 10C7.46956 10 6.96085 9.78929 6.58578 9.41421C6.2107 9.03914 5.99999 8.53043 5.99999 8C5.99999 7.46957 6.2107 6.96086 6.58578 6.58579C6.96085 6.21071 7.46956 6 7.99999 6ZM7.99999 3C11.3333 3 14.18 5.07333 15.3333 8C14.18 10.9267 11.3333 13 7.99999 13C4.66666 13 1.81999 10.9267 0.666656 8C1.81999 5.07333 4.66666 3 7.99999 3ZM2.11999 8C2.65883 9.10021 3.49553 10.0272 4.53498 10.6755C5.57442 11.3238 6.77492 11.6675 7.99999 11.6675C9.22506 11.6675 10.4256 11.3238 11.465 10.6755C12.5045 10.0272 13.3412 9.10021 13.88 8C13.3412 6.8998 12.5045 5.97283 11.465 5.3245C10.4256 4.67616 9.22506 4.33245 7.99999 4.33245C6.77492 4.33245 5.57442 4.67616 4.53498 5.3245C3.49553 5.97283 2.65883 6.8998 2.11999 8Z" fill="#010023"/>
</svg>
