<svg width="16" height="16" viewBox="0 0 16 16" fill="none" xmlns="http://www.w3.org/2000/svg">
<g opacity="0.45">
<path d="M12.0207 11.078L14.876 13.9327L13.9327 14.876L11.078 12.0207C10.0159 12.8722 8.69471 13.3353 7.33337 13.3333C4.02137 13.3333 1.33337 10.6453 1.33337 7.33334C1.33337 4.02134 4.02137 1.33334 7.33337 1.33334C10.6454 1.33334 13.3334 4.02134 13.3334 7.33334C13.3353 8.69467 12.8722 10.0158 12.0207 11.078ZM10.6834 10.5833C11.5293 9.71314 12.0017 8.54691 12 7.33334C12 4.75534 9.91137 2.66667 7.33337 2.66667C4.75537 2.66667 2.66671 4.75534 2.66671 7.33334C2.66671 9.91134 4.75537 12 7.33337 12C8.54695 12.0017 9.71318 11.5292 10.5834 10.6833L10.6834 10.5833Z" fill="#010023"/>
</g>
</svg>
