<svg width="16" height="16" viewBox="0 0 16 16" fill="none" xmlns="http://www.w3.org/2000/svg">
<path d="M2.66667 4.66667H13.3333M6.66667 7.33333V11.3333M9.33334 7.33333V11.3333M3.33334 4.66667L4.00001 12.6667C4.00001 13.0203 4.14048 13.3594 4.39053 13.6095C4.64058 13.8595 4.97972 14 5.33334 14H10.6667C11.0203 14 11.3594 13.8595 11.6095 13.6095C11.8595 13.3594 12 13.0203 12 12.6667L12.6667 4.66667M6.00001 4.66667V2.66667C6.00001 2.48986 6.07024 2.32029 6.19527 2.19526C6.32029 2.07024 6.48986 2 6.66667 2H9.33334C9.51015 2 9.67972 2.07024 9.80474 2.19526C9.92977 2.32029 10 2.48986 10 2.66667V4.66667" stroke="#5A62E6" stroke-linecap="round" stroke-linejoin="round"/>
</svg>
